# xmcd
#
# Track frame offsets:
#	150
#	16259
#	34746
#	51043
#	65589
#	79674
#	97421
#	111244
#	128734
#	142069
#	160274
#	174757
#	193836
#	207982
#
# Disc length: 2982 seconds
#
# Revision: 2
# Processed by: cddbd v1.5.2PL0 Copyright (c) Steve Scherf et al.
# Submitted via: audiograbber 1.83.01
#
DISCID=c50ba40e
DTITLE=Reckless Kelly - Bulletproof
DYEAR=2008
DGENRE=Country
TTITLE0=Ragged As The Road
TTITLE1=You Don't Have To Stay Forever
TTITLE2=Love In Her Eyes
TTITLE3=Passin Through
TTITLE4=I Never Had A Chance
TTITLE5=One False Move
TTITLE6=A Guy Like Me
TTITLE7=American Blood
TTITLE8=How Was California
TTITLE9=Mirage
TTITLE10=Don't Say Goodbye
TTITLE11=God Forsaken Town
TTITLE12=Wandering Eye
TTITLE13=Bulletproof
EXTD=
EXTT0=
EXTT1=
EXTT2=
EXTT3=
EXTT4=
EXTT5=
EXTT6=
EXTT7=
EXTT8=
EXTT9=
EXTT10=
EXTT11=
EXTT12=
EXTT13=
PLAYORDER=
